<?xml version="1.0" encoding="UTF-8" standalone="yes"?>
<svg version="1.2" viewBox="0 0 512 512" preserveAspectRatio="xMidYMid meet" baseProfile="tiny-ps" xml:space="preserve" xmlns="http://www.w3.org/2000/svg">
  <title>HEXAIT</title>
  <rect x="0" y="0" width="512" height="512" fill="#010101"/>
  <path d="M0 0 C1.18984037 0.63028581 2.37593213 1.26768243 3.55883789 1.91088867 C4.20274475 2.25444901 4.84665161 2.59800934 5.5100708 2.95198059 C7.60397788 4.07133102 9.69274942 5.19990766 11.78149414 6.32885742 C13.22890592 7.10522264 14.67658038 7.88109833 16.12451172 8.65649414 C26.07158656 13.99076251 35.99278062 19.37369718 45.88696289 24.80541992 C46.67997803 25.22976318 47.47299316 25.65410645 48.29003906 26.09130859 C50.14471558 27.12617589 51.96145662 28.22996076 53.75146484 29.37304688 C62.88654994 34.9341174 70.28466702 35.53943936 80.65649414 35.45385742 C82.13894706 35.4670052 83.62137576 35.48326424 85.10375977 35.50268555 C88.68427551 35.5429775 92.26326859 35.54164368 95.84399414 35.51635742 C94.22582239 38.92465679 92.3663345 41.311665 89.78149414 44.07885742 C86.57108329 47.57554695 83.49943175 51.12435136 80.53149414 54.82885742 C76.64444162 59.63849135 72.52303696 64.15845805 68.29711914 68.66650391 C64.27298255 72.98460316 60.55053547 77.49869193 56.85571289 82.10229492 C54.60217376 84.80654188 52.17366537 87.21529555 49.64477539 89.65698242 C46.62481206 92.7752092 43.98486923 96.20276529 41.26586914 99.58276367 C37.29974509 104.38689135 33.07732084 108.9471927 28.84399414 113.51635742 C30.34405805 116.96414829 32.34808676 119.33996275 34.90649414 122.07885742 C38.17417887 125.6393267 41.30878607 129.25568662 44.34399414 133.01635742 C47.95665244 137.48200449 51.73292959 141.74920357 55.60180664 145.99291992 C57.88915318 148.56718101 60.05947685 151.20925232 62.21899414 153.89135742 C65.46350174 157.90459853 68.83126094 161.74071696 72.34399414 165.51635742 C76.64274413 170.13684337 80.67719816 174.90890275 84.62915039 179.83276367 C87.67715534 183.52584904 90.92013076 187.02505039 94.19165039 190.52026367 C95.84399414 192.51635742 95.84399414 192.51635742 95.84399414 194.51635742 C90.77664966 194.84081799 85.71547993 195.07490084 80.64013672 195.23046875 C78.91966394 195.29535883 77.19989458 195.38372404 75.48193359 195.49707031 C61.66165906 196.38520078 61.66165906 196.38520078 57.03762817 193.31826782 C53.29199505 189.87075666 50.61496067 185.75626258 47.84399414 181.51635742 C46.70705783 180.13951574 45.54660345 178.78117902 44.34790039 177.45776367 C43.85837891 176.89468506 43.36885742 176.33160645 42.86450195 175.75146484 C42.38335937 175.19950439 41.9022168 174.64754395 41.40649414 174.07885742 C37.1121027 169.14030726 32.84257532 164.18185549 28.59399414 159.20385742 C25.16963245 155.19284324 21.70672504 151.22980437 18.15649414 147.32885742 C14.3142738 143.09895359 10.71255142 138.70664571 7.11743164 134.26635742 C2.60595628 128.8091776 -2.09961904 123.47734072 -7.15600586 118.51635742 C-13.40517748 125.32692034 -19.3430969 132.33173687 -25.15600586 139.51635742 C-26.81479694 141.52314663 -28.48391051 143.52063072 -30.15600586 145.51635742 C-12.56253697 149.54387674 -12.56253697 149.54387674 5.28149414 152.07885742 C6.45711914 152.22323242 7.63274414 152.36760742 8.84399414 152.51635742 C9.17399414 153.17635742 9.50399414 153.83635742 9.84399414 154.51635742 C8.93109619 154.60199951 8.01819824 154.6876416 7.07763672 154.77587891 C3.67622933 155.09622767 0.27506023 155.41891348 -3.12597656 155.74316406 C-4.5952894 155.88276739 -6.06468995 156.02145085 -7.53417969 156.15917969 C-9.6518514 156.35782346 -11.76918094 156.55982233 -13.88647461 156.76245117 C-15.79529419 156.94312134 -15.79529419 156.94312134 -17.74267578 157.12744141 C-21.05718661 157.45404109 -21.05718661 157.45404109 -23.88964844 158.07666016 C-26.15600586 158.51635742 -26.15600586 158.51635742 -29.68725586 158.30541992 C-37.216456 157.91963541 -37.216456 157.91963541 -43.97436523 160.8059082 C-47.63763507 164.30371965 -50.6140206 168.34124062 -53.59155273 172.42358398 C-56.10831319 175.79026167 -58.88750781 178.91897176 -61.65600586 182.07885742 C-62.60583105 183.18268679 -63.55383652 184.28808538 -64.49975586 185.39526367 C-65.09046875 186.08471069 -65.09046875 186.08471069 -65.69311523 186.78808594 C-67.35521553 188.68805757 -67.35521553 188.68805757 -69.28564453 191.67480469 C-70.82464578 193.51108915 -71.70605371 194.39043549 -74.02883911 195.04048157 C-76.28846012 195.21015016 -78.47382352 195.19178493 -80.73803711 195.10229492 C-81.55221603 195.09380524 -82.36639496 195.08531555 -83.20524597 195.0765686 C-85.79437111 195.04309919 -88.38032967 194.96784102 -90.96850586 194.89135742 C-92.72822635 194.86124906 -94.4879959 194.83387477 -96.24780273 194.80932617 C-100.5517489 194.74333021 -104.85334141 194.63986071 -109.15600586 194.51635742 C-107.53783411 191.10805805 -105.67834622 188.72104984 -103.09350586 185.95385742 C-99.86402248 182.43593534 -96.77140068 178.86453367 -93.78100586 175.14135742 C-90.10028739 170.58855235 -86.22951938 166.28218331 -82.24462891 161.99951172 C-78.44215571 157.88874785 -74.91337287 153.59369219 -71.40209961 149.23120117 C-69.06769996 146.40962247 -66.63609988 143.71045031 -64.15600586 141.01635742 C-60.03450188 136.53757136 -56.16170949 131.91156959 -52.33959961 127.17651367 C-49.06260473 123.18432492 -45.62364982 119.34304899 -42.15600586 115.51635742 C-43.65606977 112.06856656 -45.66009848 109.69275209 -48.21850586 106.95385742 C-51.42891671 103.45716789 -54.50056825 99.90836349 -57.46850586 96.20385742 C-61.35856517 91.39050305 -65.4847242 86.86874292 -69.71166992 82.35522461 C-73.63156854 78.14588727 -77.26852257 73.75909978 -80.87084961 69.27416992 C-84.29423427 65.14270058 -87.9433772 61.23172332 -91.58959961 57.29760742 C-94.26527172 54.39794449 -96.87408781 51.45121764 -99.45288086 48.46557617 C-100.73795729 46.99481209 -102.04371461 45.54208133 -103.35913086 44.09838867 C-104.09647461 43.28756836 -104.83381836 42.47674805 -105.59350586 41.64135742 C-106.61250977 40.53147461 -106.61250977 40.53147461 -107.65209961 39.39916992 C-109.15600586 37.51635742 -109.15600586 37.51635742 -109.15600586 35.51635742 C-108.28202148 35.55414307 -107.40803711 35.59192871 -106.50756836 35.63085938 C-86.35384623 36.30027349 -72.2129252 34.65762651 -54.92504883 23.29174805 C-50.43703482 20.41422751 -45.73527271 17.95568344 -41.03100586 15.45385742 C-35.34527978 12.37636665 -29.68658906 9.25858394 -24.06616211 6.06323242 C-23.06665527 5.50128174 -22.06714844 4.93933105 -21.03735352 4.36035156 C-19.11761924 3.28012291 -17.20415349 2.18865443 -15.2980957 1.08447266 C-14.43522949 0.60179932 -13.57236328 0.11912598 -12.68334961 -0.37817383 C-11.92787842 -0.80976807 -11.17240723 -1.2413623 -10.39404297 -1.68603516 C-6.37955876 -3.1167453 -3.74139936 -1.75883684 0 0 Z " fill="#FBFBFB" transform="translate(262.156005859375,120.483642578125)"/>
  <path d="M0 0 C1.24769033 0.66246535 2.49164817 1.3319931 3.73242188 2.00732422 C4.40478882 2.36664032 5.07715576 2.72595642 5.76989746 3.09616089 C7.91696334 4.24539922 10.05908415 5.40352585 12.20117188 6.56201172 C13.60970861 7.31781192 15.01856024 8.0730256 16.42773438 8.82763672 C19.86028716 10.66765999 23.28886789 12.51492721 26.71582031 14.36535645 C29.88655544 16.07685938 33.05962912 17.78401483 36.23242188 19.49169922 C38.05535974 20.47343069 39.87828523 21.45518515 41.70117188 22.43701172 C39.92617336 26.23826886 37.51079886 28.98651747 34.63867188 31.99951172 C31.01130195 35.87377069 27.52570614 39.79487047 24.20117188 43.93701172 C20.56959112 48.4505478 16.74453274 52.71071976 12.79589844 56.94335938 C9.69532667 60.28871313 6.79532419 63.74231035 3.95117188 67.31201172 C0.52059826 71.5832304 -2.99856768 75.0517003 -7.29882812 78.43701172 C-12.62742017 72.72994024 -17.90233115 67.02430833 -22.79882812 60.93701172 C-25.99815183 56.9607094 -29.32474045 53.1703955 -32.79882812 49.43701172 C-37.13848944 44.77164962 -41.22504148 39.95770824 -45.21679688 34.98779297 C-47.7396776 31.89690907 -50.38814957 28.93596044 -53.08398438 25.99560547 C-54.29882812 24.43701172 -54.29882812 24.43701172 -54.29882812 22.43701172 C-53.27450684 21.88726685 -53.27450684 21.88726685 -52.22949219 21.32641602 C-50.17506114 20.22332075 -48.12097529 19.11958247 -46.06713867 18.01538086 C-43.71008241 16.74861237 -41.35224705 15.48340506 -38.9934082 14.2199707 C-33.3919929 11.21470615 -27.81153368 8.18248867 -22.29492188 5.02294922 C-21.39290039 4.51030518 -20.49087891 3.99766113 -19.56152344 3.46948242 C-17.87821188 2.50861601 -16.20141063 1.53622924 -14.53222656 0.55102539 C-13.77844727 0.12281494 -13.02466797 -0.30539551 -12.24804688 -0.74658203 C-11.60182373 -1.12355225 -10.95560059 -1.50052246 -10.28979492 -1.88891602 C-6.39202047 -3.20856718 -3.59005529 -1.70097202 0 0 Z " fill="#030302" transform="translate(262.298828125,152.56298828125)"/>
  <path d="M0 0 C2.23044611 1.10164118 4.45935646 2.20621894 6.6875 3.3125 C7.31333984 3.62123047 7.93917969 3.92996094 8.58398438 4.24804688 C11.38568224 5.64156152 14.05166139 7.03502596 16.64453125 8.79296875 C18.89904135 10.17955597 18.89904135 10.17955597 21.29296875 9.97265625 C25.22362784 8.56034151 28.71243774 6.53834062 32.3125 4.4375 C33.05306641 4.01275391 33.79363281 3.58800781 34.55664062 3.15039062 C36.37468118 2.10648347 38.18783748 1.05407808 40 0 C44.64154658 4.29190089 48.16810269 9.16483959 51.8125 14.3125 C52.40998047 15.14845703 53.00746094 15.98441406 53.62304688 16.84570312 C55.0862487 18.89418568 56.54507639 20.94563384 58 23 C55.06457057 26.19564094 52.15187577 28.2354333 48.3515625 30.3125 C47.26359375 30.91320312 46.175625 31.51390625 45.0546875 32.1328125 C43.35699219 33.05707031 43.35699219 33.05707031 41.625 34 C39.38678355 35.22691223 37.14976542 36.45601352 34.9140625 37.6875 C33.9235791 38.22761719 32.9330957 38.76773438 31.91259766 39.32421875 C28.90051927 41.00516735 28.90051927 41.00516735 25.80200195 43.20092773 C23 45 23 45 20.25390625 45.09765625 C15.45445895 43.47863501 11.28580762 41.00994679 6.9375 38.4375 C5.54881714 37.62974121 5.54881714 37.62974121 4.13208008 36.80566406 C-2.98181631 32.65067782 -10.03201415 28.39538996 -17 24 C-11.87714872 15.53542123 -6.1230352 7.74927392 0 0 Z " fill="#FBFBFB" transform="translate(235,306)"/>
</svg>
